<svg xmlns:inkscape="http://www.inkscape.org/namespaces/inkscape" xmlns:sodipodi="http://sodipodi.sourceforge.net/DTD/sodipodi-0.dtd" xmlns="http://www.w3.org/2000/svg" xmlns:svg="http://www.w3.org/2000/svg" xmlns:rdf="http://www.w3.org/1999/02/22-rdf-syntax-ns#" xmlns:cc="http://creativecommons.org/ns#" xmlns:dc="http://purl.org/dc/elements/1.1/" viewBox="0 0 10.583333 13.2291675" version="1.1" x="0px" y="0px"><g><path style="color:#000000;" d="m 5.7254917,1.8882572 a 0.26458349,0.26458349 0 0 0 -0.2635514,0.265615 0.26458349,0.26458349 0 0 0 0.2635514,0.264068 h 0.2578656 v 0.355018 c -1.2808638,0.348176 -2.2267386,1.520415 -2.2267386,2.90835 0,1.661213 1.3547487,3.013768 3.0173877,3.013768 1.662639,0 3.0158372,-1.352555 3.0158372,-3.013768 0,-1.387843 -0.9443879,-2.56009 -2.2246722,-2.90835 V 2.4179402 H 7.8230369 A 0.26458349,0.26458349 0 0 0 8.0865884,2.1538722 0.26458349,0.26458349 0 0 0 7.8230369,1.8882572 Z m 0.7849659,0.529683 h 0.5255471 v 0.261482 c -0.086294,-0.0075 -0.1738048,-0.01188 -0.2619983,-0.01188 -0.088895,0 -0.176575,0.0043 -0.2635488,0.01188 z M 2.069384,2.9899982 A 0.26458349,0.26458349 0 0 0 1.8053166,3.2535472 0.26458349,0.26458349 0 0 0 2.069384,3.5191652 H 3.979345 A 0.26458349,0.26458349 0 0 0 4.2428938,3.2535472 0.26458349,0.26458349 0 0 0 3.979345,2.9899982 Z m 4.7046224,0.207222 c 1.3769869,0 2.4866705,1.109183 2.4866705,2.484088 0,1.374902 -1.1096836,2.484602 -2.4866705,2.484602 -1.3769843,0 -2.488221,-1.1097 -2.488221,-2.484602 0,-1.374905 1.1112367,-2.484088 2.488221,-2.484088 z m -0.02739,0.597381 a 0.26458349,0.26458349 0 0 0 -0.2656152,0.263549 v 1.861386 a 0.26460995,0.26460995 0 0 0 0.2656152,0.264065 H 7.825106 A 0.26458349,0.26458349 0 0 0 8.0907212,5.9195362 0.26458349,0.26458349 0 0 0 7.825106,5.6539182 H 7.0106841 V 4.0581502 A 0.26458349,0.26458349 0 0 0 6.7466164,3.7946012 Z m -5.403802,0.408242 A 0.26458349,0.26458349 0 0 0 1.078747,4.4684612 0.26458349,0.26458349 0 0 0 1.3428144,4.7320102 H 3.2507063 A 0.26458349,0.26458349 0 0 0 3.5163241,4.4684612 0.26458349,0.26458349 0 0 0 3.2507063,4.2028432 Z M 1.0596256,5.4156902 A 0.26458349,0.26458349 0 0 0 0.79349178,5.6813082 0.26458349,0.26458349 0 0 0 1.0596256,5.9448572 H 2.9675201 A 0.26458349,0.26458349 0 0 0 3.2331379,5.6813082 0.26458349,0.26458349 0 0 0 2.9675201,5.4156902 Z m 0.2831888,1.214914 A 0.26458349,0.26458349 0 0 0 1.078747,6.8941532 0.26458349,0.26458349 0 0 0 1.3428144,7.1597712 H 3.2507063 A 0.26458349,0.26458349 0 0 0 3.5163241,6.8941532 0.26458349,0.26458349 0 0 0 3.2507063,6.6306042 Z M 2.069384,7.8434492 A 0.26458349,0.26458349 0 0 0 1.8053166,8.1090662 0.26458349,0.26458349 0 0 0 2.069384,8.3726152 H 3.979345 A 0.26458349,0.26458349 0 0 0 4.2428938,8.1090662 0.26458349,0.26458349 0 0 0 3.979345,7.8434492 Z" fill="#000000" stroke-width="1" stroke-linecap="round" stroke-linejoin="round"/></g><text x="0" y="25.583334" fill="#000000" font-size="5px" font-weight="bold" font-family="'Helvetica Neue', Helvetica, Arial-Unicode, Arial, Sans-serif">Created by Larea</text><text x="0" y="30.583334" fill="#000000" font-size="5px" font-weight="bold" font-family="'Helvetica Neue', Helvetica, Arial-Unicode, Arial, Sans-serif">from the Noun Project</text></svg>