<svg xmlns="http://www.w3.org/2000/svg" viewBox="0 0 100 100" preserveAspectRatio="xMidYMid" style="shape-rendering: auto; display: block; background: transparent;" width="205" height="205" xmlns:xlink="http://www.w3.org/1999/xlink"><g><g transform="rotate(0 50 50)">
  <rect fill="#3547ef" height="15" width="15" ry="7.5" rx="7.5" y="20.5" x="42.5">
    <animate repeatCount="indefinite" begin="-0.4971590909090909s" dur="0.5681818181818182s" keyTimes="0;1" values="1;0" attributeName="opacity"></animate>
  </rect>
</g><g transform="rotate(45 50 50)">
  <rect fill="#3547ef" height="15" width="15" ry="7.5" rx="7.5" y="20.5" x="42.5">
    <animate repeatCount="indefinite" begin="-0.42613636363636365s" dur="0.5681818181818182s" keyTimes="0;1" values="1;0" attributeName="opacity"></animate>
  </rect>
</g><g transform="rotate(90 50 50)">
  <rect fill="#3547ef" height="15" width="15" ry="7.5" rx="7.5" y="20.5" x="42.5">
    <animate repeatCount="indefinite" begin="-0.35511363636363635s" dur="0.5681818181818182s" keyTimes="0;1" values="1;0" attributeName="opacity"></animate>
  </rect>
</g><g transform="rotate(135 50 50)">
  <rect fill="#3547ef" height="15" width="15" ry="7.5" rx="7.5" y="20.5" x="42.5">
    <animate repeatCount="indefinite" begin="-0.2840909090909091s" dur="0.5681818181818182s" keyTimes="0;1" values="1;0" attributeName="opacity"></animate>
  </rect>
</g><g transform="rotate(180 50 50)">
  <rect fill="#3547ef" height="15" width="15" ry="7.5" rx="7.5" y="20.5" x="42.5">
    <animate repeatCount="indefinite" begin="-0.21306818181818182s" dur="0.5681818181818182s" keyTimes="0;1" values="1;0" attributeName="opacity"></animate>
  </rect>
</g><g transform="rotate(225 50 50)">
  <rect fill="#3547ef" height="15" width="15" ry="7.5" rx="7.5" y="20.5" x="42.5">
    <animate repeatCount="indefinite" begin="-0.14204545454545456s" dur="0.5681818181818182s" keyTimes="0;1" values="1;0" attributeName="opacity"></animate>
  </rect>
</g><g transform="rotate(270 50 50)">
  <rect fill="#3547ef" height="15" width="15" ry="7.5" rx="7.5" y="20.5" x="42.5">
    <animate repeatCount="indefinite" begin="-0.07102272727272728s" dur="0.5681818181818182s" keyTimes="0;1" values="1;0" attributeName="opacity"></animate>
  </rect>
</g><g transform="rotate(315 50 50)">
  <rect fill="#3547ef" height="15" width="15" ry="7.5" rx="7.5" y="20.5" x="42.5">
    <animate repeatCount="indefinite" begin="0s" dur="0.5681818181818182s" keyTimes="0;1" values="1;0" attributeName="opacity"></animate>
  </rect>
</g><g></g></g><!-- [ldio] generated by https://loading.io --></svg>